<?xml version="1.0" encoding="utf-8"?>
<!-- Generator: Adobe Illustrator 26.5.0, SVG Export Plug-In . SVG Version: 6.00 Build 0)  -->
<svg version="1.2" baseProfile="tiny" id="Calque_1"
	 xmlns="http://www.w3.org/2000/svg" xmlns:xlink="http://www.w3.org/1999/xlink" x="0px" y="0px" width="311.4px" height="324.7px"
	 viewBox="0 0 311.4 324.7" overflow="visible" xml:space="preserve">
<path fill="#FFFFFF" d="M5.3,162.3C5.3,67.5,69.6,4.9,155.7,4.9c87,0,150.4,62.6,150.4,157.5s-63.4,157.5-150.4,157.5
	C69.6,320.8,5.3,258.2,5.3,162.3z"/>
<g>
	<path d="M5.3,162.3C5.3,67.5,69.6,4.9,155.7,4.9c87,0,150.4,62.6,150.4,157.5s-63.4,157.5-150.4,157.5
		C69.6,320.8,5.3,258.2,5.3,162.3z M286.2,162.3c0-88.2-49.2-137.6-129.6-137.6S26.1,74.1,26.1,162.3s49.2,137.6,129.6,137.6
		S286.2,250.6,286.2,162.3z"/>
</g>
<path d="M63.1,198.7v-1.3h34.4v5.3c0,25.8,15.2,38.4,62.2,38.4c41,0,55.5-8.6,55.5-29.1c0-18.5-10.6-25.8-38.4-30.4l-52.2-8.6
	c-35.7-6-61.5-23.1-61.5-58.2c0-31.1,25.8-62.2,91.9-62.2c62.2,0,90.6,31.7,90.6,73.4v2h-34.4v-4.6c0-26.5-15.2-39.7-59.5-39.7
	c-39,0-54.2,9.9-54.2,29.1c0,18.5,10.6,24.5,35.7,30.4l51.6,8.6c42.3,7.3,63.5,27.1,63.5,58.2c0,32.4-26.5,62.2-89.3,62.2
	C96.2,272.1,63.1,243.7,63.1,198.7z"/>
</svg>
