<?xml version="1.0" encoding="utf-8"?>
<!-- Generator: Adobe Illustrator 26.5.0, SVG Export Plug-In . SVG Version: 6.00 Build 0)  -->
<svg version="1.1" id="Calque_1" xmlns="http://www.w3.org/2000/svg" xmlns:xlink="http://www.w3.org/1999/xlink" x="0px" y="0px"
	 width="251.3px" height="46.3px" viewBox="0 0 251.3 46.3" style="enable-background:new 0 0 251.3 46.3;" xml:space="preserve">
<style type="text/css">
	.st0{fill:#FFFFFF;}
</style>
<g>
	<path class="st0" d="M0,20.6C0,10.6,6.8,4,15.9,4c9.2,0,15.9,6.6,15.9,16.6s-6.7,16.6-15.9,16.6C6.8,37.3,0,30.7,0,20.6z
		 M29.7,20.6c0-9.3-5.2-14.5-13.7-14.5S2.2,11.3,2.2,20.6s5.2,14.5,13.7,14.5S29.7,29.9,29.7,20.6z M37,45V13.1h1.9v6.7h0.4
		c1.1-4.2,4.9-7.2,10.5-7.2c7.4,0,11.7,5.2,11.7,12.3s-4.2,12.3-11.9,12.3c-5.2,0-9.2-2.9-10.4-7.4V45C39.1,45,37,45,37,45z
		 M49.2,35.3c6,0,10-2.6,10-10.4c0-7.7-4.2-10.3-9.9-10.3c-6.3,0-10.2,3.9-10.2,10.3v0.5C39.2,31.5,43.3,35.3,49.2,35.3z M64.7,25
		c0-7,4.6-12.3,12.3-12.3c6.6,0,11.5,4,11.5,10.9c0,0.9-0.1,1.6-0.3,2.1H66.7c0.2,5.9,3.3,9.7,10.1,9.7c6.1,0,9-2.3,9-6.3v-0.3H88
		v0.3c0,4.9-4.9,8.2-11.1,8.2C69.3,37.3,64.7,32.1,64.7,25z M66.7,24.2h19.7c0.1-0.4,0.1-0.7,0.1-1.1c0-5.6-3.6-8.6-9.6-8.6
		C70,14.5,66.9,18.3,66.7,24.2z M93.5,36.8V13.1h1.9v7.5h0.2c0.9-4,4.4-8,10.2-8c6.8,0,10.1,4.9,10.1,10.7v13.5h-2.1V23.2
		c0-5.3-2.6-8.6-8.4-8.6c-6.2,0-9.7,4.1-9.7,10.9v11.3H93.5L93.5,36.8z M129.7,26.2V26h5.2v0.8c0,3.9,2.3,5.8,9.4,5.8
		c6.2,0,8.4-1.3,8.4-4.4c0-2.8-1.6-3.9-5.8-4.6l-7.9-1.3c-5.4-0.9-9.3-3.5-9.3-8.8c0-4.7,3.9-9.4,13.9-9.4c9.4,0,13.7,4.8,13.7,11.1
		v0.3h-5.2v-0.7c0-4-2.3-6-9-6c-5.9,0-8.2,1.5-8.2,4.4c0,2.8,1.6,3.7,5.4,4.6l7.8,1.3c6.4,1.1,9.6,4.1,9.6,8.8c0,4.9-4,9.4-13.5,9.4
		C134.7,37.3,129.7,33,129.7,26.2z M161.5,45V12.8h4.8v6.6h0.4c0.9-4.4,4.4-7.2,10-7.2c7.4,0,11.7,5.1,11.7,12.5
		s-4.1,12.5-11.6,12.5c-5.4,0-8.8-2.8-9.8-7.2h-0.2v14.9L161.5,45L161.5,45z M175,32.5c5.2,0,8.2-2,8.2-7.7c0-5.8-3-7.7-8-7.7
		c-5.4,0-8.4,2.5-8.4,7.6v0.4C166.7,30.1,169.9,32.5,175,32.5z M191,24.8c0-7.5,5.1-12.5,12.9-12.5c7.4,0,12.5,4.1,12.5,11.4
		c0,0.9-0.1,1.5-0.2,2.3h-20.4c0.2,4.6,2.5,7.1,8,7.1c5,0,7.1-1.6,7.1-4.5v-0.4h5.2v0.4c0,5.1-5,8.6-12.1,8.6
		C196.2,37.3,191,32.9,191,24.8z M196,23.1h15.6V23c0-4.4-2.5-6.6-7.6-6.6C198.6,16.5,196.2,18.8,196,23.1z M219.4,24.8
		c0-7.5,5.2-12.5,13.1-12.5c7.2,0,12.5,4,12.5,10v0.5h-5.2v-0.3c0-3.7-2.7-5.6-7.4-5.6c-5.4,0-7.8,2.5-7.8,7.8
		c0,5.2,2.4,7.8,7.8,7.8c4.7,0,7.4-1.8,7.4-5.6v-0.3h5.2v0.5c0,6-5.2,10-12.5,10C224.6,37.3,219.4,32.2,219.4,24.8z"/>
</g>
</svg>
